# xmcd CD database file
#
# Track frame offsets:
#	150
#	12497
#	26629
#	39887
#	52177
#	66105
#	79242
#	91361
#	103737
#	116728
#	131485
#	144559
#	157920
#	170975
#	188613
#	200696
#	212670
#	225474
#	238912
#	251082
#	265743
#	278766
#	293143
#	305544
#	321119
#
# Disc length: 4454 seconds
#
# Revision: 0
# Processed by: cddbd v1.5.2PL0 Copyright (c) Steve Scherf et al.
# Submitted via: CDex 1.51
#
DISCID=70116419
DTITLE=Various Artist - Bottleneck Blues Anthology [CD1]
DYEAR=2011
DGENRE=Blues
TTITLE0=Dust My Broom - Elmore James
TTITLE1=Rollin' Stone - Muddy Waters
TTITLE2=Black Cat Bone - Lightnin' Hopkins
TTITLE3=Nothing But Trouble - Lonnie Johnson
TTITLE4=Little Boy Blue - Robert Lockwood Jr.
TTITLE5=Special Stream Line - Bukka White
TTITLE6=Pistol Slapper Blues - Blind Boy Fuller
TTITLE7=Overhauling Blues - Big Joe Williams
TTITLE8=Six Three-O - Robert Nighthawk
TTITLE9=Love Her With A Feelin' - Tampa Red
TTITLE10=Sinful Woman - Elmore James
TTITLE11=Walking Blues - Muddy Waters
TTITLE12=She Don't Treat Me Good No More - Blind Willie McTell
TTITLE13=I Don't Hurt Anymore - Lonnie Johnson
TTITLE14=Big House Bound - Blind Boy Fuller
TTITLE15=Delta Blues - Big Joe WIlliams
TTITLE16=Fixin' To Die Blues - Bukka White
TTITLE17=Sweet Little Angel - Tampa Red
TTITLE18=My Daily Wish - Robert Lockwood Jr.
TTITLE19=Return Mail Blues - Robert Nighthawk
TTITLE20=Dark And Cloudy - Lightnin' Hopkins
TTITLE21=Rooting Ground Hog - Big Joe Williams
TTITLE22=Happy Home - Elmore James
TTITLE23=You Will Need Me - Lonnie Johnson
TTITLE24=Got My Mojo Working - Muddy Waters
EXTD=YEAR: 2011
EXTT0=
EXTT1=
EXTT2=
EXTT3=
EXTT4=
EXTT5=
EXTT6=
EXTT7=
EXTT8=
EXTT9=
EXTT10=
EXTT11=
EXTT12=
EXTT13=
EXTT14=
EXTT15=
EXTT16=
EXTT17=
EXTT18=
EXTT19=
EXTT20=
EXTT21=
EXTT22=
EXTT23=
EXTT24=
PLAYORDER=
